<?xml version="1.0" encoding="utf-8"?>
<!-- Generator: Adobe Illustrator 27.2.0, SVG Export Plug-In . SVG Version: 6.00 Build 0)  -->
<svg version="1.1" xmlns="http://www.w3.org/2000/svg" xmlns:xlink="http://www.w3.org/1999/xlink" x="0px" y="0px"
	 viewBox="0 0 500 500" style="enable-background:new 0 0 500 500;" xml:space="preserve">
<style type="text/css">
	.st0{fill:url(#SVGID_1_);}
	.st1{fill:url(#SVGID_00000016792917521174694090000004189102456245605811_);}
	.st2{fill:url(#SVGID_00000134940911777413579460000011933260043943572634_);}
	.st3{fill:#645AE9;}
	.st4{fill:url(#SVGID_00000041993665796112383740000017626083713937726339_);}
	.st5{fill:#FFFFFF;}
	.st6{fill:url(#SVGID_00000129173662677420483850000014110051676134571920_);}
	.st7{opacity:0.3;fill:url(#SVGID_00000170957844077829160860000016696110692985694625_);}
	.st8{opacity:0.3;fill:url(#SVGID_00000139282735717381083040000014352298147935512972_);}
	.st9{opacity:0.78;fill:url(#SVGID_00000021842182482024956280000012173668343348424632_);}
	.st10{opacity:0.3;fill:url(#SVGID_00000096771971825508289060000018080606726569574042_);}
	.st11{opacity:0.3;fill:url(#SVGID_00000044170415772071835250000018010983889432289937_);}
	.st12{fill:url(#SVGID_00000044152577525402258530000004051669017381183934_);}
</style>
<g id="Background">
</g>
<g id="Objects">
	<g>
		<g>
			<linearGradient id="SVGID_1_" gradientUnits="userSpaceOnUse" x1="-31.4104" y1="570.7808" x2="503.0329" y2="-19.9196">
				<stop  offset="0" style="stop-color:#8E54E9"/>
				<stop  offset="0.5936" style="stop-color:#6567E7"/>
				<stop  offset="1" style="stop-color:#4776E6"/>
			</linearGradient>
			<path class="st0" d="M455.52,152.84c-0.13,0.09-0.26,0.18-0.39,0.29c0,0,13.91-6.58,30.72-16.34
				c-19.33,59.9-70.73,125.14-194.67,161.44c-78.77,23.07-161.54,33.43-201.96,49.56c-68.92,27.47-78.73,64.68-68.25,99.08
				c0,0-0.11-0.11-0.3-0.33c-3.91-4.43-43.57-52.56,16.2-115.63c24.66-26.03,118.8-77.83,273.18-73.23
				c-1.65-0.52-9.13-3.02-35.29-8.27c-6.57-1.32-13.44-2.56-20.31-3.61c29.87-8.81,58.96-19.4,85.08-34.31
				C481.85,130.19,481.63,40.63,487.04,3.26c0,0,12.59,36.8,8.39,85.58C493.37,112.78,479.41,135.61,455.52,152.84z"/>
			
				<linearGradient id="SVGID_00000108991201169394888110000000627554794650273437_" gradientUnits="userSpaceOnUse" x1="96.3598" y1="445.2752" x2="430.278" y2="199.2298">
				<stop  offset="0" style="stop-color:#4776E6"/>
				<stop  offset="0.483" style="stop-color:#479FE6"/>
				<stop  offset="1" style="stop-color:#47CFE6"/>
			</linearGradient>
			<path style="fill:url(#SVGID_00000108991201169394888110000000627554794650273437_);" d="M455.41,218.37
				c0,0.03-0.02,0.06-0.04,0.12c-0.54,1.85-5.52,18.72-21.65,41.37c-14.02,19.69-37.92,35.33-67.55,42.81
				c-0.15,0.03-0.3,0.08-0.46,0.11l0.39-0.05c2.41-0.24,16.13-1.71,33.03-4.61c-0.57,0.53-1.2,1.03-1.76,1.59
				c-69.51,67.71-181.61,61.8-182.24,61.8c0,0,34.13,5.92,77.03-1.22c-50.24,18.7-94.4,26.59-147.17,31.66c0,0,0,0-0.02-0.02
				c-0.63-0.38-11.91-7.3-18.78-19.72c-3.57-6.4-5.91-14.26-5.04-23.44v-0.02c17.81-4.94,40.55-9.72,65.7-15.02
				c34.9-7.34,74.49-15.65,113.49-27.08C372.25,285.6,419.95,249.99,455.41,218.37z"/>
			
				<linearGradient id="SVGID_00000113337730144242937020000010799019110609662091_" gradientUnits="userSpaceOnUse" x1="105.7688" y1="439.5933" x2="399.4768" y2="223.1765">
				<stop  offset="0" style="stop-color:#4776E6"/>
				<stop  offset="0.483" style="stop-color:#479FE6"/>
				<stop  offset="1" style="stop-color:#47CFE6"/>
			</linearGradient>
			<path style="fill:url(#SVGID_00000113337730144242937020000010799019110609662091_);" d="M147.35,426.38
				c-8.37,7.75-27.44,26.74-30.26,29.32c1.15-4.25,4.98-17.49,10.67-28.94c1-1.99,1.81-3.52,2.46-4.67
				c0.24,0.03,0.52,0.05,0.78,0.05c3.67,0.06,6.7-1.97,6.76-4.54c0.07-2.53-2.85-4.63-6.5-4.69c-3.63-0.05-6.65,1.99-6.72,4.52
				c-0.04,1.61,1.09,3.03,2.83,3.88c-5.5,10.65-9.39,28.49-10.63,34.24c-0.87-4.72-4.54-25.86-6.09-35.01
				c-0.44-2.81,0.76-5.63,3.33-7.81l34.5-29.05l0.5,7.87v0.05l1.7,27.11C150.92,421.46,149.74,424.18,147.35,426.38z"/>
			<path class="st3" d="M444.84,481.79c-17.83-24.76-56.16-37.45-94.38-36.89c-38.35,0.58-75.1,10.25-111.17,19.37
				c-45.38,11.1-99.51,28.56-148.56,22.12c-7.65-1.06-15.39-2.75-22.83-5.02c-21.68-6.63-40.61-18.26-46.94-34.28
				c15.7,16.99,44.48,25.51,72.47,27.06c28.29,1.79,55.14-4.75,82.25-11.12c56.51-13.53,113.82-32.98,175.5-29.67
				c24.37,1.23,48.92,7.86,67.14,19.07c-3.72-2.76-7.52-5.46-11.5-8.01c-20.33-13.32-40.7-19.46-68.99-20.31
				c-67.53-1.93-128.97,21.04-191.35,35.16c46.46-19.43,94.79-37.94,150.21-43.52c44.42-4.31,86.6,0.97,114.95,25.76
				c7.89,6.54,26.59,27.14,32.85,39.59C444.69,481.47,444.82,481.71,444.84,481.79z"/>
			
				<linearGradient id="SVGID_00000061461859190110242390000000282539232198147756_" gradientUnits="userSpaceOnUse" x1="473.3249" y1="-4.5299" x2="157.8896" y2="302.5765">
				<stop  offset="0" style="stop-color:#4776E6"/>
				<stop  offset="0.1822" style="stop-color:#477CE6"/>
				<stop  offset="0.4228" style="stop-color:#478DE6"/>
				<stop  offset="0.6962" style="stop-color:#47A8E6"/>
				<stop  offset="0.9918" style="stop-color:#47CEE6"/>
				<stop  offset="1" style="stop-color:#47CFE6"/>
			</linearGradient>
			<path style="fill:url(#SVGID_00000061461859190110242390000000282539232198147756_);" d="M487.04,3.26c0,0,0,0.05-0.02,0.15
				c-0.11,0.71-0.22,1.44-0.3,2.18c-0.07,0.27-0.09,0.55-0.13,0.82c-0.04,0.29-0.09,0.59-0.15,0.93
				c-5.76,39.56-18.37,113.86-162.04,192.22c-51.44,28.08-116.56,43.94-177.26,61.43c-8.85,2.55-17.59,5.13-26.18,7.78
				c4.41-10.22,9.89-19.6,16.2-28.24c24.89-34.13,67.46-60.34,118.23-74.9c27.81-7.99,63.57-16.55,95.01-18.76
				c1.72-0.11,2.8-0.18,3.17-0.2c0.04,0,0.09-0.02,0.13-0.02c0,0-0.02,0-0.09,0c-1.83-0.17-31.79-2.61-63.96-1.77
				c12.7-5.01,25-9.83,36.53-14.68C447.15,79.06,485.72,5.78,487.02,3.27C487.04,3.26,487.04,3.26,487.04,3.26z"/>
			<path class="st5" d="M479.09,151.99c-23.76,57.36-73.74,103.2-194.68,140.84c-76.86,23.92-157.62,34.66-197.06,51.38
				c-67.25,28.48-77.46,64.7-67.23,100.37c0,0,0.19,0.24,0,0c-4.33-8.44-49.4-106.28,153.87-142.52
				C418.46,258.47,448.98,205.69,479.09,151.99z"/>
			
				<linearGradient id="SVGID_00000124866267018056408890000007747933935547251104_" gradientUnits="userSpaceOnUse" x1="400.3015" y1="156.826" x2="108.3475" y2="394.083">
				<stop  offset="0" style="stop-color:#8E54E9"/>
				<stop  offset="0.5936" style="stop-color:#6567E7"/>
				<stop  offset="1" style="stop-color:#4776E6"/>
			</linearGradient>
			<path style="fill:url(#SVGID_00000124866267018056408890000007747933935547251104_);" d="M485.85,136.79
				c-19.33,59.9-70.73,125.14-194.67,161.44c-78.77,23.07-161.54,33.43-201.96,49.56c-68.92,27.47-78.73,64.68-68.25,99.08
				c0,0-0.11-0.11-0.3-0.33c-4.44-8.15-53.07-106.42,155.26-141.39C426.47,263.12,455.41,193.96,485.85,136.79z"/>
			
				<linearGradient id="SVGID_00000042726250380856755050000008191192446560079019_" gradientUnits="userSpaceOnUse" x1="143.0273" y1="390.4745" x2="429.9248" y2="193.6814">
				<stop  offset="0" style="stop-color:#4776E6"/>
				<stop  offset="0.2212" style="stop-color:#4784E6;stop-opacity:0.7788"/>
				<stop  offset="0.6402" style="stop-color:#47AAE6;stop-opacity:0.3598"/>
				<stop  offset="1" style="stop-color:#47CFE6;stop-opacity:0"/>
			</linearGradient>
			<path style="opacity:0.3;fill:url(#SVGID_00000042726250380856755050000008191192446560079019_);" d="M455.41,218.37
				c0,0.03-0.02,0.06-0.04,0.12c-55.72,87.05-228.48,117.24-280.66,128.37c-51.42,10.97-33.73,41.73-33.12,42.68
				c-0.63-0.38-9.5-6.85-15.41-17.34c-3.6-6.39-5.91-14.26-5.04-23.44v-0.02c17.81-4.94,40.55-9.72,65.7-15.02
				c34.9-7.34,74.49-15.65,113.49-27.08C372.25,285.6,419.95,249.99,455.41,218.37z"/>
			
				<linearGradient id="SVGID_00000014601603820768729640000015890103214289672592_" gradientUnits="userSpaceOnUse" x1="231.9431" y1="301.089" x2="243.7128" y2="94.5321">
				<stop  offset="0" style="stop-color:#4776E6"/>
				<stop  offset="0.2212" style="stop-color:#4784E6;stop-opacity:0.7788"/>
				<stop  offset="0.6402" style="stop-color:#47AAE6;stop-opacity:0.3598"/>
				<stop  offset="1" style="stop-color:#47CFE6;stop-opacity:0"/>
			</linearGradient>
			<path style="opacity:0.3;fill:url(#SVGID_00000014601603820768729640000015890103214289672592_);" d="M353.57,146.66
				c-172.02,20.66-206.44,114.33-206.44,114.33c-8.85,2.55-17.59,5.13-26.18,7.78c4.41-10.22,9.89-19.6,16.2-28.24
				c24.89-34.13,67.46-60.34,118.23-74.9c27.81-7.99,63.57-16.55,95.01-18.76C352.11,146.76,353.2,146.68,353.57,146.66z"/>
			
				<linearGradient id="SVGID_00000119819801430844953820000001328370886007986829_" gradientUnits="userSpaceOnUse" x1="67.9059" y1="463.1902" x2="444.8425" y2="463.1902">
				<stop  offset="0" style="stop-color:#4776E6"/>
				<stop  offset="0.2212" style="stop-color:#4784E6;stop-opacity:0.7788"/>
				<stop  offset="0.6402" style="stop-color:#47AAE6;stop-opacity:0.3598"/>
				<stop  offset="1" style="stop-color:#47CFE6;stop-opacity:0"/>
			</linearGradient>
			<path style="opacity:0.78;fill:url(#SVGID_00000119819801430844953820000001328370886007986829_);" d="M444.84,481.79
				c-17.83-24.76-56.16-37.45-94.38-36.89c-38.35,0.58-75.1,10.25-111.17,19.37c-45.38,11.1-99.51,28.56-148.56,22.12
				c-7.65-1.06-15.39-2.75-22.83-5.02c59.52,13.37,114.81-7.81,181.34-25.67c22.18-5.95,44.86-12.5,74.2-15.81
				c82.37-9.29,117.57,34.69,121.05,41.2C444.69,481.47,444.82,481.71,444.84,481.79z"/>
			
				<linearGradient id="SVGID_00000178907623097496361860000016991929621825819027_" gradientUnits="userSpaceOnUse" x1="352.366" y1="314.4727" x2="391.2848" y2="283.1804">
				<stop  offset="0" style="stop-color:#4776E6"/>
				<stop  offset="0.2212" style="stop-color:#4784E6;stop-opacity:0.7788"/>
				<stop  offset="0.6402" style="stop-color:#47AAE6;stop-opacity:0.3598"/>
				<stop  offset="1" style="stop-color:#47CFE6;stop-opacity:0"/>
			</linearGradient>
			<path style="opacity:0.3;fill:url(#SVGID_00000178907623097496361860000016991929621825819027_);" d="M399.12,298.11
				c-13.87,6.39-68.7,12.78-68.7,12.78l35.29-8.13l0.39-0.05C368.51,302.48,382.23,301.01,399.12,298.11z"/>
			
				<linearGradient id="SVGID_00000026129792305237401250000007302583520968996773_" gradientUnits="userSpaceOnUse" x1="502.2415" y1="29.8108" x2="285.7198" y2="261.6552">
				<stop  offset="0" style="stop-color:#4776E6"/>
				<stop  offset="0.2212" style="stop-color:#4784E6;stop-opacity:0.7788"/>
				<stop  offset="0.6402" style="stop-color:#47AAE6;stop-opacity:0.3598"/>
				<stop  offset="1" style="stop-color:#47CFE6;stop-opacity:0"/>
			</linearGradient>
			<path style="opacity:0.3;fill:url(#SVGID_00000026129792305237401250000007302583520968996773_);" d="M254.45,245.79
				c29.87-8.81,58.96-19.4,85.08-34.31C481.85,130.19,481.63,40.63,487.04,3.26C485.85,215.66,254.45,245.79,254.45,245.79z"/>
			
				<linearGradient id="SVGID_00000137843383749093727970000001803143614266137505_" gradientUnits="userSpaceOnUse" x1="267.4711" y1="175.583" x2="490.7077" y2="29.4548">
				<stop  offset="0" style="stop-color:#4776E6"/>
				<stop  offset="0.2212" style="stop-color:#4784E6;stop-opacity:0.7788"/>
				<stop  offset="0.6402" style="stop-color:#47AAE6;stop-opacity:0.3598"/>
				<stop  offset="1" style="stop-color:#47CFE6;stop-opacity:0"/>
			</linearGradient>
			<path style="fill:url(#SVGID_00000137843383749093727970000001803143614266137505_);" d="M487.04,3.26c0,0,0,0.05-0.02,0.15
				c-0.11,0.71-0.22,1.44-0.3,2.18c-0.07,0.27-0.09,0.55-0.13,0.82c-0.04,0.29-0.09,0.59-0.15,0.93
				c-39.5,90.95-130.52,138.11-132.82,139.31c-1.83-0.17-31.79-2.61-63.96-1.77c12.7-5.01,25-9.83,36.53-14.68
				C447.15,79.06,485.72,5.78,487.02,3.27C487.04,3.26,487.04,3.26,487.04,3.26z"/>
		</g>
	</g>
</g>
<g id="Texts">
</g>
</svg>
