<?xml version="1.0" encoding="utf-8"?>
<!-- Generator: Adobe Illustrator 27.2.0, SVG Export Plug-In . SVG Version: 6.00 Build 0)  -->
<svg version="1.1" xmlns="http://www.w3.org/2000/svg" xmlns:xlink="http://www.w3.org/1999/xlink" x="0px" y="0px"
	 viewBox="0 0 500 500" style="enable-background:new 0 0 500 500;" xml:space="preserve">
<style type="text/css">
	.st0{fill:#47CFE6;}
	.st1{fill:url(#SVGID_1_);}
	.st2{fill:#FFFFFF;}
	.st3{fill:none;}
	.st4{opacity:0.5;fill:url(#SVGID_00000157291173969198049940000006648102445976515987_);}
	.st5{fill:url(#SVGID_00000022562634307749688340000011269499677801276569_);}
	.st6{opacity:0.7;fill:url(#SVGID_00000134964294949240477280000001037396145820144277_);}
	.st7{opacity:0.7;fill:url(#SVGID_00000132799516056043930100000003003165262608771491_);}
	.st8{opacity:0.7;fill:url(#SVGID_00000087410337046916343820000009552846057594164905_);}
	.st9{opacity:0.5;fill:url(#SVGID_00000152983410857146949660000008332077891261701784_);}
	.st10{fill:url(#SVGID_00000149382782246258354840000010378744853391863966_);}
	.st11{opacity:0.7;fill:url(#SVGID_00000076570270205803828970000009123483981018690218_);}
	.st12{opacity:0.7;fill:url(#SVGID_00000009571960344914216070000016942753471297332907_);}
	.st13{fill:url(#SVGID_00000088851834134460673270000009767125249598874255_);}
	.st14{opacity:0.5;fill:url(#SVGID_00000056423914282077426490000015384301327601273233_);}
	.st15{opacity:0.5;fill:url(#SVGID_00000054238086068546283180000012420662158751269509_);}
	.st16{opacity:0.5;fill:url(#SVGID_00000057854461078495057940000000499473804180188329_);}
	.st17{opacity:0.5;fill:url(#SVGID_00000174584439843454166650000011492221926924478379_);}
	.st18{opacity:0.5;fill:url(#SVGID_00000183212932543377924870000015641187247775006122_);}
	.st19{opacity:0.5;fill:url(#SVGID_00000085966013488521755260000007130554835857977769_);}
	.st20{opacity:0.5;}
	.st21{fill:url(#SVGID_00000139262400432018645570000011553709483956525724_);}
	.st22{fill:#645AE9;}
	.st23{fill:url(#SVGID_00000051367462889016341620000004264509542565183651_);}
	.st24{opacity:0.5;fill:url(#SVGID_00000155124337622977809620000017577292030708703924_);}
	.st25{opacity:0.5;fill:url(#SVGID_00000096032408987901339440000001438510849085960842_);}
	.st26{opacity:0.5;fill:url(#SVGID_00000160903266379642147640000004262915837644684684_);}
	.st27{fill:url(#SVGID_00000131337645632469176610000003229545778738503592_);}
	.st28{opacity:0.5;fill:url(#SVGID_00000130612454792974004010000015625189017789701551_);}
	.st29{fill:url(#SVGID_00000164475388547978925680000011113095311955713955_);}
	.st30{fill:url(#SVGID_00000105404656688322517710000015537411609349733519_);}
	.st31{fill:url(#SVGID_00000133499935503500054350000006185267734264621711_);}
	.st32{fill:url(#SVGID_00000044878651751562997460000013757312587082379696_);}
	.st33{fill:url(#SVGID_00000179638476602751686270000009973758407949493929_);}
	.st34{fill:url(#SVGID_00000121274687527447036350000018120943630562370494_);}
	.st35{fill:url(#SVGID_00000176750781395917638780000005590116996489819525_);}
	.st36{fill:url(#SVGID_00000154427436052924499330000000261809680470431648_);}
	.st37{fill:url(#SVGID_00000165235927446876399990000017472437517726489527_);}
	.st38{opacity:0.3;fill:url(#SVGID_00000119818098130389604440000006982653201294885519_);}
	.st39{fill:url(#SVGID_00000183927965436170857690000001201593326996590751_);}
	.st40{fill:url(#SVGID_00000000910007285194062870000007545368237238336161_);}
	.st41{fill:url(#SVGID_00000127013829782940625980000016904683995885075117_);}
	.st42{fill:url(#SVGID_00000098934275173636404560000012221128800374063261_);}
	.st43{fill:url(#SVGID_00000146483766966886120440000010347146028518468743_);}
	.st44{opacity:0.5;fill:url(#SVGID_00000072990796002636415180000015616107056467191957_);}
	.st45{fill:url(#SVGID_00000072976887774916265210000000571536506344036774_);}
	.st46{opacity:0.5;fill:url(#SVGID_00000057835040084151076010000000540856107242316429_);}
</style>
<g id="Background">
</g>
<g id="Objects">
	<g>
		<path class="st0" d="M32.36,345c-0.35-1.57-1.67-6.19-7.14-10.16c-5.28-3.83-11.28-4.78-13.43-5.04c2-0.17,8.1-0.86,13.43-4.59
			c5.92-4.14,6.92-9.22,7.14-10.61c0.23,1.42,1.31,6.49,7.24,10.61c5.29,3.67,11.28,4.41,13.33,4.59c-2.2,0.28-8.1,1.27-13.33,5.04
			C34.12,338.79,32.74,343.4,32.36,345z"/>
		<path class="st0" d="M353.43,472.58c-0.23-1.02-1.08-4.01-4.63-6.59c-3.42-2.48-7.31-3.1-8.71-3.27c1.3-0.11,5.25-0.56,8.71-2.98
			c3.84-2.68,4.49-5.98,4.63-6.88c0.15,0.92,0.85,4.21,4.69,6.88c3.43,2.38,7.31,2.86,8.64,2.98c-1.43,0.18-5.25,0.82-8.64,3.27
			C354.57,468.56,353.68,471.54,353.43,472.58z"/>
		<path class="st0" d="M268.73,423.82c-0.12-0.53-0.56-2.09-2.41-3.44c-1.78-1.3-3.81-1.62-4.54-1.7c0.68-0.06,2.74-0.29,4.54-1.55
			c2-1.4,2.34-3.12,2.41-3.59c0.08,0.48,0.44,2.19,2.45,3.59c1.79,1.24,3.81,1.49,4.51,1.55c-0.74,0.1-2.74,0.43-4.51,1.7
			C269.33,421.72,268.86,423.27,268.73,423.82z"/>
		<path class="st0" d="M449.53,153.27c-0.17-0.74-0.78-2.9-3.34-4.76c-2.47-1.8-5.29-2.24-6.3-2.36c0.94-0.08,3.8-0.4,6.3-2.15
			c2.77-1.94,3.24-4.32,3.34-4.97c0.11,0.67,0.61,3.04,3.39,4.97c2.48,1.72,5.29,2.07,6.25,2.15c-1.03,0.13-3.8,0.59-6.25,2.36
			C450.36,150.37,449.71,152.52,449.53,153.27z"/>
		<path class="st0" d="M196.67,51.27c-0.24-1.06-1.12-4.16-4.8-6.83c-3.55-2.58-7.58-3.21-9.03-3.39c1.35-0.11,5.44-0.58,9.03-3.09
			c3.98-2.78,4.65-6.2,4.8-7.13c0.16,0.95,0.88,4.36,4.87,7.13c3.55,2.47,7.58,2.96,8.96,3.09c-1.48,0.19-5.45,0.85-8.96,3.39
			C197.86,47.1,196.93,50.19,196.67,51.27z"/>
		<linearGradient id="SVGID_1_" gradientUnits="userSpaceOnUse" x1="512.122" y1="220.5699" x2="76.8865" y2="220.5699">
			<stop  offset="0" style="stop-color:#8E54E9"/>
			<stop  offset="0.1922" style="stop-color:#8466E9"/>
			<stop  offset="0.5781" style="stop-color:#6895E7"/>
			<stop  offset="1" style="stop-color:#47CFE6"/>
		</linearGradient>
		<path class="st1" d="M363.45,160.35c-0.03,0.26-0.09,0.53-0.18,0.79c55.95,8.96,93.93,26.41,93.93,46.47
			c0,29.2-80.43,46.59-179.65,46.59S97.9,236.81,97.9,207.61c0-23.29,51.17-43.06,122.22-50.11c0.04-0.11,0.1-0.22,0.14-0.33
			c-88.5,7.65-153.38,32.59-153.38,62.19c0,35.69,94.32,64.62,210.67,64.62c116.35,0,210.66-28.93,210.66-64.62
			C488.21,193.05,436.97,170.43,363.45,160.35z"/>
		<g>
			<path class="st2" d="M457.2,207.61c0,2.28-0.49,4.49-1.44,6.62c1.26-2.44,1.92-4.97,1.92-7.6c0-18.88-33.64-35.44-84.22-44.8
				c-3.29-0.52-6.62-1.02-10.01-1.48c-0.03,0.26-0.09,0.53-0.18,0.79C419.21,170.09,457.2,187.54,457.2,207.61z"/>
			<path class="st2" d="M278.03,282.99c-116.35,0-210.67-28.93-210.67-64.62c0-3.12,0.73-6.18,2.12-9.18
				c-1.71,3.31-2.6,6.7-2.6,10.16c0,35.69,94.32,64.62,210.67,64.62c106.07,0,193.82-24.05,208.49-55.34
				C470.01,259.44,382.99,282.99,278.03,282.99z"/>
			<path class="st2" d="M100.28,198.99c10.83-19.45,57.74-35.33,119.84-41.49c0.04-0.11,0.1-0.22,0.14-0.33
				c-11.03,0.95-21.69,2.18-31.91,3.64C141.7,168.73,108.31,182.65,100.28,198.99z"/>
		</g>
		<path class="st2" d="M220.12,157.5c0.04-0.11,0.1-0.22,0.14-0.33c-0.27,0.02-0.53,0.05-0.8,0.07c-0.04,0.09-0.08,0.18-0.12,0.26
			c-72.99,7.13-125.56,27.13-125.56,50.7c0,29.54,82.63,47.14,184.57,47.14c101.93,0,184.57-17.6,184.57-47.14
			c0-20.3-39.02-37.95-96.5-47.02c0.05-0.13,0.09-0.27,0.12-0.4c-1.02-0.15-2.05-0.29-3.08-0.43c-0.03,0.26-0.09,0.53-0.18,0.79
			c55.95,8.96,93.93,26.41,93.93,46.47c0,29.2-80.43,46.59-179.65,46.59S97.9,236.81,97.9,207.61
			C97.9,184.32,149.07,164.55,220.12,157.5z"/>
		<path class="st3" d="M363.45,160.35c-0.03,0.26-0.09,0.53-0.18,0.79c55.95,8.96,93.93,26.41,93.93,46.47
			c0,19.69-36.58,33.99-90.8,41.24c-21.46,15.58-45.63,27.8-72.5,34.92c108.7-2.56,194.32-30.41,194.32-64.41
			C488.21,193.05,436.97,170.43,363.45,160.35z"/>
		<g>
			<path class="st3" d="M366.39,248.84c-3.32,2.41-6.72,4.74-10.18,6.98c2.71-1.71,5.38-3.46,8.01-5.26
				c59.29-7.46,99.29-22.21,99.29-42.5c0-20.39-40.36-38.15-100.11-47.5c-0.03,0.19-0.08,0.39-0.15,0.57
				c55.95,8.96,93.93,26.41,93.93,46.47C457.19,227.29,420.62,241.6,366.39,248.84z"/>
		</g>
		
			<linearGradient id="SVGID_00000088094373302634112950000003934450222092605353_" gradientUnits="userSpaceOnUse" x1="228.9666" y1="206.7221" x2="70.5232" y2="206.7221">
			<stop  offset="0" style="stop-color:#4776E6"/>
			<stop  offset="0.2536" style="stop-color:#4788E6"/>
			<stop  offset="0.76" style="stop-color:#47B7E6"/>
			<stop  offset="1" style="stop-color:#47CFE6"/>
		</linearGradient>
		<path style="opacity:0.5;fill:url(#SVGID_00000088094373302634112950000003934450222092605353_);" d="M66.88,219.35
			c0,13.73,13.97,26.46,37.78,36.93c3.63-9.08,9.33-17.48,17.78-23.62c-15.59-6.9-24.54-15.32-24.54-25.06
			c0-23.29,51.17-43.06,122.22-50.11c0.04-0.11,0.1-0.22,0.14-0.33C131.76,164.82,66.88,189.76,66.88,219.35z"/>
		<g>
			
				<linearGradient id="SVGID_00000043444417040276699130000005224092307323281087_" gradientUnits="userSpaceOnUse" x1="331.0389" y1="407.4536" x2="94.5671" y2="407.4536" gradientTransform="matrix(0.9648 0.2628 -0.2628 0.9648 113.3378 -31.792)">
				<stop  offset="0" style="stop-color:#FFFFFF"/>
				<stop  offset="0.5252" style="stop-color:#47CFE6"/>
				<stop  offset="0.6205" style="stop-color:#4BBDE6"/>
				<stop  offset="0.8104" style="stop-color:#578EE8"/>
				<stop  offset="1" style="stop-color:#645AE9"/>
			</linearGradient>
			<path style="fill:url(#SVGID_00000043444417040276699130000005224092307323281087_);" d="M260.24,392.16
				c-0.07,0.14-0.15,0.27-0.25,0.4c28.09,10.79,44.93,24.18,40.98,34.89c-5.74,15.58-52.08,16.22-105.02,5.56
				c-52.94-10.66-92.44-28.58-86.7-44.16c4.58-12.43,35.77-17.48,75.07-13.61c0.05-0.05,0.09-0.11,0.14-0.16
				c-48.73-5.42-88.26,0.91-94.08,16.71c-7.02,19.04,37.62,44.61,99.7,57.11c62.08,12.5,118.1,7.19,125.12-11.85
				C320.38,423.01,297.49,405.43,260.24,392.16z"/>
			<g>
				
					<linearGradient id="SVGID_00000124153320562697936070000010518161910620737417_" gradientUnits="userSpaceOnUse" x1="303.8793" y1="407.9058" x2="260.9704" y2="407.9058">
					<stop  offset="0" style="stop-color:#8E54E9"/>
					<stop  offset="0.1949" style="stop-color:#8051D7"/>
					<stop  offset="0.5862" style="stop-color:#5B49A8"/>
					<stop  offset="1" style="stop-color:#2F3F70"/>
				</linearGradient>
				<path style="opacity:0.7;fill:url(#SVGID_00000124153320562697936070000010518161910620737417_);" d="M301.51,423.66
					c0.48-7.98-9.37-17.12-26.03-25.48c-4.75-2.08-9.84-4.1-15.24-6.02c-0.07,0.14-0.15,0.27-0.25,0.4
					C284.85,402.11,300.88,413.69,301.51,423.66z"/>
				
					<linearGradient id="SVGID_00000125569078558937226570000003516896828212643721_" gradientUnits="userSpaceOnUse" x1="328.7515" y1="425.3894" x2="95.0484" y2="425.3894">
					<stop  offset="0" style="stop-color:#8E54E9"/>
					<stop  offset="0.1949" style="stop-color:#8051D7"/>
					<stop  offset="0.5862" style="stop-color:#5B49A8"/>
					<stop  offset="1" style="stop-color:#2F3F70"/>
				</linearGradient>
				<path style="opacity:0.7;fill:url(#SVGID_00000125569078558937226570000003516896828212643721_);" d="M315.2,435.88
					c-7.02,19.04-63.04,24.35-125.12,11.85c-57.32-11.54-99.74-34.22-100.39-52.62c-1.15,18.6,41.85,42,100.39,53.78
					c62.08,12.5,118.1,7.19,125.12-11.85c0.56-1.51,0.77-3.06,0.69-4.64C315.84,433.58,315.62,434.75,315.2,435.88z"/>
				
					<linearGradient id="SVGID_00000085963137367614296390000007460263636303693489_" gradientUnits="userSpaceOnUse" x1="188.7562" y1="382.2447" x2="110.5178" y2="382.2447">
					<stop  offset="0" style="stop-color:#8E54E9"/>
					<stop  offset="0.1949" style="stop-color:#8051D7"/>
					<stop  offset="0.5862" style="stop-color:#5B49A8"/>
					<stop  offset="1" style="stop-color:#2F3F70"/>
				</linearGradient>
				<path style="opacity:0.7;fill:url(#SVGID_00000085963137367614296390000007460263636303693489_);" d="M109.25,387.69
					c-0.44,1.2-0.58,2.41-0.51,3.62c0.06-0.83,0.21-1.65,0.51-2.46c4.58-12.43,35.77-17.48,75.07-13.61
					c0.05-0.05,0.09-0.11,0.14-0.16c-13.39-1.49-26.08-2.09-37.58-1.85C126.47,374.64,112.23,379.6,109.25,387.69z"/>
			</g>
			<path class="st3" d="M260.24,392.16c-0.07,0.14-0.15,0.27-0.25,0.4c28.09,10.79,44.93,24.18,40.98,34.89
				c-3.87,10.5-26.2,14.21-56.56,12.25c-14.51,6.01-29.81,9.93-45.55,10.85c58.51,10.31,109.67,4.65,116.36-13.49
				C320.38,423.01,297.49,405.43,260.24,392.16z"/>
			
				<linearGradient id="SVGID_00000142869025253027015090000001514525539876622470_" gradientUnits="userSpaceOnUse" x1="180.464" y1="404.0851" x2="91.1833" y2="404.0851" gradientTransform="matrix(0.9648 0.2628 -0.2628 0.9648 113.3378 -31.792)">
				<stop  offset="0" style="stop-color:#4776E6"/>
				<stop  offset="0.1991" style="stop-color:#436ED4"/>
				<stop  offset="0.5989" style="stop-color:#3A58A5"/>
				<stop  offset="1" style="stop-color:#2F3F70"/>
			</linearGradient>
			<path style="opacity:0.5;fill:url(#SVGID_00000142869025253027015090000001514525539876622470_);" d="M90.38,391.78
				c-2.7,7.33,2.25,15.62,12.89,23.76c3.72-4.46,8.42-8.32,14.13-10.69c-6.96-5.36-10.08-10.81-8.17-16.01
				c4.58-12.43,35.77-17.48,75.07-13.61c0.05-0.05,0.09-0.11,0.14-0.16C135.73,369.65,96.2,375.99,90.38,391.78z"/>
		</g>
		<g>
			
				<linearGradient id="SVGID_00000062194484967839591900000012718539604954581653_" gradientUnits="userSpaceOnUse" x1="298.4623" y1="454.2039" x2="198.3846" y2="454.2039" gradientTransform="matrix(0.9707 -0.2401 0.2401 0.9707 -96.473 94.079)">
				<stop  offset="0" style="stop-color:#FFFFFF"/>
				<stop  offset="0.5252" style="stop-color:#47CFE6"/>
				<stop  offset="0.6205" style="stop-color:#4BBDE6"/>
				<stop  offset="0.8104" style="stop-color:#578EE8"/>
				<stop  offset="1" style="stop-color:#645AE9"/>
			</linearGradient>
			<path style="fill:url(#SVGID_00000062194484967839591900000012718539604954581653_);" d="M264.92,459.31
				c0.01,0.06,0.02,0.12,0.02,0.19c13.35-0.29,23.28,2.09,24.8,6.64c2.21,6.61-14.69,13.89-37.16,17.99
				c-22.48,4.11-42.02,3.5-44.23-3.12c-1.77-5.28,8.33-11.87,23.89-16.41c0-0.03,0-0.05,0.01-0.08
				c-19.47,5.4-32.28,13.73-30.03,20.44c2.71,8.08,26.27,10.73,52.62,5.92c26.36-4.82,45.53-15.28,42.82-23.36
				C295.66,461.56,282.34,458.55,264.92,459.31z"/>
			
				<linearGradient id="SVGID_00000026152071084118757290000016011832463509881533_" gradientUnits="userSpaceOnUse" x1="289.6801" y1="453.6168" x2="248.2206" y2="456.5228" gradientTransform="matrix(0.9707 -0.2401 0.2401 0.9707 -96.473 94.079)">
				<stop  offset="0" style="stop-color:#8E54E9"/>
				<stop  offset="0.1922" style="stop-color:#8466E9;stop-opacity:0.8078"/>
				<stop  offset="0.5781" style="stop-color:#6895E7;stop-opacity:0.4219"/>
				<stop  offset="1" style="stop-color:#47CFE6;stop-opacity:0"/>
			</linearGradient>
			<path style="opacity:0.7;fill:url(#SVGID_00000026152071084118757290000016011832463509881533_);" d="M264.92,459.31
				c0.01,0.06,0.02,0.12,0.02,0.19c13.35-0.29,23.28,2.09,24.8,6.64c1.49,4.46-5.71,9.22-17.44,13.1
				c-3.68,4.42-8.23,8.19-13.78,10.91c24.43-5.08,41.71-14.93,39.14-22.64C295.66,461.56,282.34,458.55,264.92,459.31z"/>
			
				<linearGradient id="SVGID_00000068658826429482073750000006862647998236514229_" gradientUnits="userSpaceOnUse" x1="232.0962" y1="449.5336" x2="196.8932" y2="449.5336" gradientTransform="matrix(0.9707 -0.2401 0.2401 0.9707 -96.473 94.079)">
				<stop  offset="0" style="stop-color:#4776E6"/>
				<stop  offset="0.2536" style="stop-color:#4788E6"/>
				<stop  offset="0.76" style="stop-color:#47B7E6"/>
				<stop  offset="1" style="stop-color:#47CFE6"/>
			</linearGradient>
			<path style="opacity:0.7;fill:url(#SVGID_00000068658826429482073750000006862647998236514229_);" d="M202.21,484.96
				c1.04,3.11,5.17,5.42,11.36,6.8c0.13-2.21,0.79-4.35,2.24-6.09c-4.06-0.92-6.72-2.46-7.46-4.66
				c-1.77-5.28,8.33-11.87,23.89-16.41c0-0.03,0-0.05,0.01-0.08C212.77,469.92,199.97,478.26,202.21,484.96z"/>
		</g>
		<g>
			<path class="st3" d="M94.35,208.05c0,10.16,9.41,19,25.88,26.33c0.72-0.59,1.45-1.16,2.21-1.72
				c-15.59-6.9-24.54-15.32-24.54-25.06c0-23.29,51.17-43.06,122.22-50.11c0.04-0.11,0.1-0.22,0.14-0.33
				c-20.61,1.78-39.94,4.5-57.47,8C120.8,175.69,94.35,191,94.35,208.05z"/>
		</g>
		<g>
			
				<linearGradient id="SVGID_00000109032076273851662890000006593337744834005686_" gradientUnits="userSpaceOnUse" x1="225.5265" y1="270.9978" x2="375.4789" y2="42.9452">
				<stop  offset="0" style="stop-color:#8E54E9"/>
				<stop  offset="0.1922" style="stop-color:#8466E9"/>
				<stop  offset="0.5781" style="stop-color:#6895E7"/>
				<stop  offset="1" style="stop-color:#47CFE6"/>
			</linearGradient>
			<path style="fill:url(#SVGID_00000109032076273851662890000006593337744834005686_);" d="M260.1,188.45
				c47.09-79.42,103.74-111.9,129.97-125.32c23.6-12.07,45.76-20.57,61.52-26.06c10.85-7.26,26.24-19.52,25.7-30.35
				c0,0-93.9,28.97-108.85,59.46c0,0-5.54-3.52-0.86-9.18c0,0-37.94,13.68-40.2,34.27c0,0-5.82-3.58-2.86-9.86
				c0,0-56.8,28.17-51.5,61.92c0,0-11.34-8.84-9.79-19.55c0,0-33.85,18.75-25.39,37.27c0,0-7.88-2.89-6.12-9.48
				c0,0-35.15,34.02-27.95,55.66c7.2,21.64,7.2,21.64,7.2,21.64s-12.78-12.36-15.45-28.97c0,0-25.52,24.35-28.91,42.51
				c18.78,3.5,40.54,6.06,64.27,7.61C239.67,225.6,250.36,204.88,260.1,188.45z"/>
			<g>
				
					<linearGradient id="SVGID_00000121973309230980921060000018381981317020026019_" gradientUnits="userSpaceOnUse" x1="251.4187" y1="228.5988" x2="220.025" y2="228.5988">
					<stop  offset="0" style="stop-color:#8E54E9"/>
					<stop  offset="0.1922" style="stop-color:#8466E9"/>
					<stop  offset="0.5781" style="stop-color:#6895E7"/>
					<stop  offset="1" style="stop-color:#47CFE6"/>
				</linearGradient>
				<path style="opacity:0.5;fill:url(#SVGID_00000121973309230980921060000018381981317020026019_);" d="M249.69,207.18
					c-11.35,13.8-21.52,27.82-30.39,42c3.81,0.31,7.67,0.6,11.6,0.85C236.62,234.12,243.15,219.78,249.69,207.18z"/>
			</g>
			
				<linearGradient id="SVGID_00000158748047753263812340000004182239835956176821_" gradientUnits="userSpaceOnUse" x1="732.4371" y1="285.6142" x2="676.3218" y2="327.9784" gradientTransform="matrix(0.8673 -0.4978 0.4978 0.8673 -466.349 197.5141)">
				<stop  offset="0" style="stop-color:#4776E6"/>
				<stop  offset="0.1822" style="stop-color:#477CE6"/>
				<stop  offset="0.4228" style="stop-color:#478DE6"/>
				<stop  offset="0.6962" style="stop-color:#47A8E6"/>
				<stop  offset="0.9918" style="stop-color:#47CEE6"/>
				<stop  offset="1" style="stop-color:#47CFE6"/>
			</linearGradient>
			<path style="opacity:0.5;fill:url(#SVGID_00000158748047753263812340000004182239835956176821_);" d="M272.84,143.19
				c2.22,2.63,4.25,4.22,4.25,4.22c-4.41-28.09,34.19-52.3,47.25-59.64c-0.76-1.61-1.05-3.75,0.18-6.36c0,0-56.8,28.17-51.5,61.92
				C273.02,143.33,272.95,143.27,272.84,143.19z"/>
			
				<linearGradient id="SVGID_00000109012748953282664410000000448674176007288963_" gradientUnits="userSpaceOnUse" x1="664.0699" y1="296.5141" x2="631.2416" y2="321.2979" gradientTransform="matrix(0.8673 -0.4978 0.4978 0.8673 -466.349 197.5141)">
				<stop  offset="0" style="stop-color:#4776E6"/>
				<stop  offset="0.1822" style="stop-color:#477CE6"/>
				<stop  offset="0.4228" style="stop-color:#478DE6"/>
				<stop  offset="0.6962" style="stop-color:#47A8E6"/>
				<stop  offset="0.9918" style="stop-color:#47CEE6"/>
				<stop  offset="1" style="stop-color:#47CFE6"/>
			</linearGradient>
			<path style="opacity:0.5;fill:url(#SVGID_00000109012748953282664410000000448674176007288963_);" d="M236.16,160.23
				c1.6,3.36,5.75,4.9,5.75,4.9c-6.74-14.74,13.33-29.62,21.8-35.08c-0.56-1.97-0.8-4.08-0.48-6.27c0,0-33.85,18.75-25.39,37.27
				C237.84,161.05,237.12,160.78,236.16,160.23z"/>
			
				<linearGradient id="SVGID_00000071540163663878552680000005785121614617712016_" gradientUnits="userSpaceOnUse" x1="886.2383" y1="277.7802" x2="815.808" y2="330.9516" gradientTransform="matrix(0.8673 -0.4978 0.4978 0.8673 -466.349 197.5141)">
				<stop  offset="0" style="stop-color:#4776E6"/>
				<stop  offset="0.1822" style="stop-color:#477CE6"/>
				<stop  offset="0.4228" style="stop-color:#478DE6"/>
				<stop  offset="0.6962" style="stop-color:#47A8E6"/>
				<stop  offset="0.9918" style="stop-color:#47CEE6"/>
				<stop  offset="1" style="stop-color:#47CFE6"/>
			</linearGradient>
			<path style="opacity:0.5;fill:url(#SVGID_00000071540163663878552680000005785121614617712016_);" d="M372.51,70.26
				c12.85-26.19,83.92-51.25,103.7-57.79c0.76-1.94,1.18-3.86,1.08-5.75c0,0-86.3,26.64-106.58,55.71
				C367.87,67.29,372.51,70.26,372.51,70.26z"/>
			
				<linearGradient id="SVGID_00000111189584194833376610000010531143632954274190_" gradientUnits="userSpaceOnUse" x1="783.9543" y1="285.7117" x2="748.9695" y2="312.1236" gradientTransform="matrix(0.8673 -0.4978 0.4978 0.8673 -466.349 197.5141)">
				<stop  offset="0" style="stop-color:#4776E6"/>
				<stop  offset="0.1822" style="stop-color:#477CE6"/>
				<stop  offset="0.4228" style="stop-color:#478DE6"/>
				<stop  offset="0.6962" style="stop-color:#47A8E6"/>
				<stop  offset="0.9918" style="stop-color:#47CEE6"/>
				<stop  offset="1" style="stop-color:#47CFE6"/>
			</linearGradient>
			<path style="opacity:0.5;fill:url(#SVGID_00000111189584194833376610000010531143632954274190_);" d="M331.45,95.35
				c1.72-15.65,24.03-27.3,34.65-31.99c-0.66-1.57-0.7-3.73,1.48-6.36c0,0-35.25,12.72-39.81,32.08
				C327.85,93.11,331.45,95.35,331.45,95.35z"/>
			
				<linearGradient id="SVGID_00000077282838296706488490000005834369387590064533_" gradientUnits="userSpaceOnUse" x1="626.6357" y1="313.2001" x2="569.0425" y2="356.6801" gradientTransform="matrix(0.8673 -0.4978 0.4978 0.8673 -466.349 197.5141)">
				<stop  offset="0" style="stop-color:#4776E6"/>
				<stop  offset="0.1822" style="stop-color:#477CE6"/>
				<stop  offset="0.4228" style="stop-color:#478DE6"/>
				<stop  offset="0.6962" style="stop-color:#47A8E6"/>
				<stop  offset="0.9918" style="stop-color:#47CEE6"/>
				<stop  offset="1" style="stop-color:#47CFE6"/>
			</linearGradient>
			<path style="opacity:0.5;fill:url(#SVGID_00000077282838296706488490000005834369387590064533_);" d="M215.04,232.96
				c0,0,0,0-7.2-21.64c-6.05-18.18,17.79-45.09,25.56-53.23c-1.41-1.53-2.44-3.67-1.69-6.51c0,0-35.15,34.02-27.95,55.66
				c4.62,13.89,6.28,18.86,6.87,20.65C213.13,231.1,215.04,232.96,215.04,232.96z"/>
			<g class="st20">
				<g>
					<g>
						<g>
							
								<linearGradient id="SVGID_00000152965379069362700110000016484357388208099507_" gradientUnits="userSpaceOnUse" x1="198.8659" y1="221.5955" x2="167.3368" y2="221.5955">
								<stop  offset="0" style="stop-color:#8E54E9"/>
								<stop  offset="0.1922" style="stop-color:#8466E9"/>
								<stop  offset="0.5781" style="stop-color:#6895E7"/>
								<stop  offset="1" style="stop-color:#47CFE6"/>
							</linearGradient>
							<path style="fill:url(#SVGID_00000152965379069362700110000016484357388208099507_);" d="M197.13,206.44
								c-0.68-2.09-1.25-4.27-1.61-6.53c0,0-25.52,24.35-28.91,42.5c1.61,0.3,3.24,0.59,4.89,0.88
								C175.84,229.18,191.12,212.58,197.13,206.44z"/>
						</g>
					</g>
				</g>
			</g>
			<path class="st22" d="M248.91,208.15c-7.45,12.69-14.58,26.61-20.75,41.61c0.9,0.21,1.8,0.31,2.7,0.36
				c5.73-15.94,12.27-30.32,18.83-42.94C249.43,207.5,249.18,207.83,248.91,208.15z"/>
		</g>
		<g>
			
				<linearGradient id="SVGID_00000160174506656400439390000012955325944311298974_" gradientUnits="userSpaceOnUse" x1="175.9904" y1="282.2119" x2="185.2573" y2="393.4155">
				<stop  offset="0" style="stop-color:#8E54E9"/>
				<stop  offset="0.1924" style="stop-color:#8466E9"/>
				<stop  offset="0.5763" style="stop-color:#6995E8"/>
				<stop  offset="0.8453" style="stop-color:#54B9E7"/>
				<stop  offset="1" style="stop-color:#47CFE6"/>
			</linearGradient>
			<path style="fill:url(#SVGID_00000160174506656400439390000012955325944311298974_);" d="M142.57,305.59
				c12.59,13.17,20.02,19.24,20.02,19.24s-16.39-5.48-26.01-13.73c3.67,7.57,9.04,16.09,17.02,24.96
				c16.89,18.77,38.66,31.52,55.68,39.64c-1.66-33.39,2.15-63.9,8.74-90.94c-25.88-2.4-49.66-6.28-70.29-11.32
				C141.34,283.9,135.27,297.96,142.57,305.59z"/>
			
				<linearGradient id="SVGID_00000082362654569352745180000002243946646785177255_" gradientUnits="userSpaceOnUse" x1="219.237" y1="329.7953" x2="197.1812" y2="329.7953">
				<stop  offset="0" style="stop-color:#8E54E9"/>
				<stop  offset="0.1922" style="stop-color:#8466E9"/>
				<stop  offset="0.5781" style="stop-color:#6895E7"/>
				<stop  offset="1" style="stop-color:#47CFE6"/>
			</linearGradient>
			<path style="opacity:0.5;fill:url(#SVGID_00000082362654569352745180000002243946646785177255_);" d="M209.31,283.89
				c-8.19,28.5-12.61,57.1-12.64,85.33c4.38,2.42,8.62,4.58,12.61,6.48c-1.66-33.39,2.15-63.9,8.74-90.94
				C215.09,284.49,212.19,284.2,209.31,283.89z"/>
			<path class="st22" d="M214.25,284.66c-3.73,13.59-6.56,27.87-8.1,42.75c-1.73,16.66-1.66,32.22-0.42,46.56
				c1.2,0.6,2.39,1.17,3.55,1.73c-1.66-33.34,2.14-63.79,8.72-90.79C216.71,284.77,215.44,284.68,214.25,284.66z"/>
			
				<linearGradient id="SVGID_00000011742960754481480640000000339462122844607930_" gradientUnits="userSpaceOnUse" x1="157.7078" y1="282.8725" x2="138.303" y2="297.5222">
				<stop  offset="0" style="stop-color:#4776E6"/>
				<stop  offset="0.1822" style="stop-color:#477CE6"/>
				<stop  offset="0.4228" style="stop-color:#478DE6"/>
				<stop  offset="0.6962" style="stop-color:#47A8E6"/>
				<stop  offset="0.9918" style="stop-color:#47CEE6"/>
				<stop  offset="1" style="stop-color:#47CFE6"/>
			</linearGradient>
			<path style="opacity:0.5;fill:url(#SVGID_00000011742960754481480640000000339462122844607930_);" d="M142.57,305.59
				c1.15,1.21,2.25,2.33,3.31,3.42c-7.03-8.53,0.8-24.07,7.56-34.41c-1.8-0.64-3.61-1.22-5.41-1.63
				C141.53,283.48,135.16,297.85,142.57,305.59z"/>
			
				<linearGradient id="SVGID_00000183938382279343016780000003363399597360916367_" gradientUnits="userSpaceOnUse" x1="475.8983" y1="413.0359" x2="462.7713" y2="422.9461" gradientTransform="matrix(0.8673 -0.4978 0.4978 0.8673 -466.349 197.5141)">
				<stop  offset="0" style="stop-color:#4776E6"/>
				<stop  offset="0.1822" style="stop-color:#477CE6"/>
				<stop  offset="0.4228" style="stop-color:#478DE6"/>
				<stop  offset="0.6962" style="stop-color:#47A8E6"/>
				<stop  offset="0.9918" style="stop-color:#47CEE6"/>
				<stop  offset="1" style="stop-color:#47CFE6"/>
			</linearGradient>
			<path style="opacity:0.5;fill:url(#SVGID_00000183938382279343016780000003363399597360916367_);" d="M157.45,340.14
				c-7.98-8.87-13.35-17.4-17.02-24.96c9.62,8.25,26.01,13.73,26.01,13.73s-1.8-1.47-5.12-4.52c-3.98-1.45-16.71-6.39-24.75-13.29
				c3.67,7.57,9.04,16.09,17.02,24.96c1.27,1.42,2.58,2.78,3.91,4.13C157.49,340.18,157.47,340.16,157.45,340.14z"/>
		</g>
		<g>
			
				<linearGradient id="SVGID_00000117649309316052475960000003038309487132765855_" gradientUnits="userSpaceOnUse" x1="255.7589" y1="380.2971" x2="279.9505" y2="271.4348">
				<stop  offset="0" style="stop-color:#8E54E9"/>
				<stop  offset="0.1922" style="stop-color:#8466E9"/>
				<stop  offset="0.5781" style="stop-color:#6895E7"/>
				<stop  offset="1" style="stop-color:#47CFE6"/>
			</linearGradient>
			<path style="fill:url(#SVGID_00000117649309316052475960000003038309487132765855_);" d="M296.8,290.4
				c-14.38,6.06-27.93,9.34-37.2,11.14c7.8-2.82,19.99-7.7,32.69-15.06c-5.08,0.15-10.21,0.25-15.38,0.29
				c-15.88,0.13-31.36-0.29-46.27-1.18c-8.88,34.77-12.65,65.72-14.2,90.11c6.25-1.96,12.74-4.2,19.37-6.75
				c27.1-10.44,46.75-22.41,60.42-32.47c-5.21,3.39-15.12,9.01-30.06,13.07c-8.96,2.43-17,3.56-22.95,4.12
				c9.55-2.47,38.09-10.61,58.69-28.82c17.8-15.73,20.5-30.88,20.15-39.92c-5.11,0.38-10.29,0.7-15.54,0.97
				C303.57,287.4,300.34,288.91,296.8,290.4z"/>
			
				<linearGradient id="SVGID_00000100374622254953878920000010401203524010637471_" gradientUnits="userSpaceOnUse" x1="238.7878" y1="382.1738" x2="250.3933" y2="273.7863" gradientTransform="matrix(0.9999 -0.0109 0.0109 0.9999 -16.3767 -0.448)">
				<stop  offset="0" style="stop-color:#8E54E9"/>
				<stop  offset="0.1922" style="stop-color:#8466E9"/>
				<stop  offset="0.5781" style="stop-color:#6895E7"/>
				<stop  offset="1" style="stop-color:#47CFE6"/>
			</linearGradient>
			<path style="opacity:0.5;fill:url(#SVGID_00000100374622254953878920000010401203524010637471_);" d="M216.43,375.7
				c3.67-1.13,7.54-2.41,11.54-3.83c3.7-1.32,7.15-2.64,10.35-3.93c-4.22-30.16-3.14-57.74,0.51-81.9c-2.75-0.13-5.49-0.28-8.2-0.44
				C221.76,320.36,217.99,351.31,216.43,375.7z"/>
			<path class="st22" d="M216.43,375.7c3.85-1.28,7.7-2.56,11.54-3.83c-1.65-21.52-0.78-39.81,0.52-53.41
				c0.64-6.61,1.93-17.9,4.97-32.7c-0.95-0.05-1.89-0.11-2.84-0.17C221.76,320.36,217.99,351.31,216.43,375.7z"/>
			
				<linearGradient id="SVGID_00000016039829789987071440000011958022002029615512_" gradientUnits="userSpaceOnUse" x1="260.6876" y1="358.4706" x2="347.7953" y2="288.4663" gradientTransform="matrix(0.9999 -0.0109 0.0109 0.9999 -16.3767 -0.448)">
				<stop  offset="0" style="stop-color:#8E54E9"/>
				<stop  offset="0.5936" style="stop-color:#6567E7"/>
				<stop  offset="1" style="stop-color:#4776E6"/>
			</linearGradient>
			<path style="fill:url(#SVGID_00000016039829789987071440000011958022002029615512_);" d="M316.12,285.35
				c-2.3,21.79-14.25,34.11-19.99,39.16c-9.68,8.52-23.07,15.15-33.48,20.31c-7.75,3.83-14.67,6.75-19.73,8.77
				c11.34-2.82,39.23-10.79,58.99-28.73c4.85-4.41,12.85-11.82,17.21-23.3c2.56-6.73,3-12.59,2.94-16.62
				c-1.01,0.08-2.03,0.15-3.05,0.22C318.04,285.22,317.07,285.29,316.12,285.35z"/>
			
				<linearGradient id="SVGID_00000167366919802303089650000010368159046123185819_" gradientUnits="userSpaceOnUse" x1="573.1014" y1="466.2052" x2="618.8145" y2="429.4678" gradientTransform="matrix(0.9191 -0.394 0.394 0.9191 -455.2316 172.3994)">
				<stop  offset="0" style="stop-color:#8E54E9"/>
				<stop  offset="0.5936" style="stop-color:#6567E7"/>
				<stop  offset="1" style="stop-color:#4776E6"/>
			</linearGradient>
			<path style="fill:url(#SVGID_00000167366919802303089650000010368159046123185819_);" d="M238.39,367.98
				c0.09,0.07,17.57-6.03,36.43-17.46c8.9-5.39,21.46-14,21.47-14c0,0,0,0-0.01,0c-4.09,2.66-11.11,6.71-21.17,10.28
				c-1.41,1.11-3.28,2.53-5.57,4.15C253.9,361.97,238.3,367.92,238.39,367.98z"/>
		</g>
		<g>
			
				<linearGradient id="SVGID_00000120520063529661576360000015578188120994596751_" gradientUnits="userSpaceOnUse" x1="384.1699" y1="74.2067" x2="250.2298" y2="334.562">
				<stop  offset="0" style="stop-color:#8E54E9"/>
				<stop  offset="0.1922" style="stop-color:#8466E9"/>
				<stop  offset="0.5781" style="stop-color:#6895E7"/>
				<stop  offset="1" style="stop-color:#47CFE6"/>
			</linearGradient>
			<path style="fill:url(#SVGID_00000120520063529661576360000015578188120994596751_);" d="M299.22,251.62
				c9.55-3.4,20.33-8.15,30.29-14.67c20.99-13.74,26.19-27.4,27.7-32.77c-1.63,0.92-7.9,4.28-17.74,5.25
				c-8.85,0.87-15.2-0.73-17.2-1.29c7.21-1.89,16.52-4.9,25.46-9.68c24.62-13.16,27.1-29.39,27.49-33.63
				c-6.5,2.82-16.54,6.56-29.87,9.42c-9.56,2.05-18.07,3.06-24.65,3.57c4.88-1.18,9.95-2.51,15.16-3.99
				c13.68-3.89,25.49-8.07,35.48-12.08c2.11-5.38,4.74-11.1,8.04-17.1c6.18-11.26,13.49-21.36,20.91-30.16
				c-1.52,1.1-4.63,3.07-9.69,4.55c-8.26,2.41-15.84,1.79-17.96,1.57c4.9-1.48,10.41-3.34,16.21-5.65
				c5.43-2.17,10.08-4.32,13.98-6.3c6.31-11.84,14.28-24.8,24.43-38.62c10.71-14.59,22.13-27.81,33.37-39.54
				c-3.17,2.27-6.35,4.55-9.52,6.82c-15.29,5.86-36.97,14.95-59.78,27.64c-52.13,28.98-82.85,61.51-110.93,108.27
				c-16.05,26.72-28.12,52.91-37.21,77.71c12.79,0.55,26.03,0.84,39.61,0.84C288.33,251.76,293.8,251.71,299.22,251.62z"/>
			
				<linearGradient id="SVGID_00000160869889610349017000000018172970312468710554_" gradientUnits="userSpaceOnUse" x1="299.9702" y1="254.4544" x2="365.1935" y2="202.0375">
				<stop  offset="0" style="stop-color:#8E54E9"/>
				<stop  offset="0.5936" style="stop-color:#6567E7"/>
				<stop  offset="1" style="stop-color:#4776E6"/>
			</linearGradient>
			<path style="fill:url(#SVGID_00000160869889610349017000000018172970312468710554_);" d="M350.28,207.17
				c-2.56,5.89-9.05,17.41-26.59,29.47c-9.56,6.57-19.81,11.52-28.83,15.15c1.26,0,2.57,0,3.88,0c9.67-3.41,20.64-8.21,30.77-14.84
				c20.99-13.74,26.19-27.4,27.7-32.77C356.29,204.69,353.92,205.98,350.28,207.17z"/>
			
				<linearGradient id="SVGID_00000020396090875581953020000000678803518332702909_" gradientUnits="userSpaceOnUse" x1="462.8989" y1="144.2374" x2="248.1175" y2="144.2374">
				<stop  offset="0" style="stop-color:#8E54E9"/>
				<stop  offset="0.1922" style="stop-color:#8466E9"/>
				<stop  offset="0.5781" style="stop-color:#6895E7"/>
				<stop  offset="1" style="stop-color:#47CFE6"/>
			</linearGradient>
			<path style="fill:url(#SVGID_00000020396090875581953020000000678803518332702909_);" d="M258.36,224.84
				c19.99-50.26,43.87-106.82,131.64-157.77c23.38-13.57,45.57-23.42,61.11-29.77c-15.29,5.86-36.97,14.95-59.78,27.64
				c-52.13,28.98-82.85,61.51-110.93,108.27c-16.05,26.72-28.12,52.92-37.21,77.71c2.02,0.09,4.04,0.17,6.08,0.24
				C252.09,241.55,255.21,232.74,258.36,224.84z"/>
			<path class="st22" d="M272.65,188.3c5.53-10.03,14.67-25.61,28.96-44.6c14.1-18.75,23.14-30.57,41.21-45.57
				c6.23-5.17,23.33-18.86,48.8-32.87c0,0,18.86-10.37,46.82-22.6c3.65-1.59,7.91-3.39,7.91-3.39c1.64-0.69,3.23-1.34,4.75-1.96
				c-15.29,5.86-36.97,14.95-59.78,27.64c-52.13,28.98-82.85,61.51-110.93,108.27c-16.05,26.72-28.12,52.92-37.21,77.71
				c0.6,0.03,1.21,0.05,1.82,0.08C251.18,232.54,260.01,211.24,272.65,188.3z"/>
			
				<linearGradient id="SVGID_00000129208176871165700020000011076078339699770510_" gradientUnits="userSpaceOnUse" x1="779.0319" y1="280.0344" x2="881.9786" y2="197.3009" gradientTransform="matrix(0.9233 -0.384 0.384 0.9233 -440.9926 167.0998)">
				<stop  offset="0" style="stop-color:#8E54E9"/>
				<stop  offset="0.5936" style="stop-color:#6567E7"/>
				<stop  offset="1" style="stop-color:#4776E6"/>
			</linearGradient>
			<path style="fill:url(#SVGID_00000129208176871165700020000011076078339699770510_);" d="M451.1,37.31
				c-1.46,0.56-3,1.16-4.58,1.78c-8.51,9.4-16.99,19.62-25.07,30.64c-10.14,13.82-18.12,26.78-24.43,38.62
				c-3.9,1.98-8.55,4.13-13.98,6.3c-5.8,2.31-11.31,4.17-16.21,5.65c0.99,0.1,3.2,0.29,6.11,0.21c4.83-1.47,10.23-3.29,15.92-5.56
				c5.43-2.17,10.08-4.32,13.98-6.3c6.31-11.84,14.28-24.8,24.43-38.62c10.71-14.59,22.13-27.81,33.37-39.54
				C457.45,32.76,454.27,35.03,451.1,37.31z"/>
			
				<linearGradient id="SVGID_00000120531698900142852570000006322566749949785216_" gradientUnits="userSpaceOnUse" x1="713.7242" y1="316.0686" x2="791.6813" y2="253.4182" gradientTransform="matrix(0.9233 -0.384 0.384 0.9233 -440.9926 167.0998)">
				<stop  offset="0" style="stop-color:#8E54E9"/>
				<stop  offset="0.5936" style="stop-color:#6567E7"/>
				<stop  offset="1" style="stop-color:#4776E6"/>
			</linearGradient>
			<path style="fill:url(#SVGID_00000120531698900142852570000006322566749949785216_);" d="M390.5,119.06
				c-6.03,7.6-11.86,16.04-16.93,25.28c-3.29,6-5.93,11.72-8.04,17.1c-3.61,1.58-7.41,3.17-11.41,4.76
				c-11.61,4.62-22.89,8.45-33.42,11.62c2.78-0.68,6.54-1.62,10.97-2.82c0,0,2.12-0.58,4.19-1.17c13.68-3.89,25.49-8.07,35.48-12.08
				c2.11-5.38,4.74-11.1,8.04-17.1c6.18-11.26,13.49-21.36,20.91-30.16C397.02,116,393.76,117.53,390.5,119.06z"/>
			
				<linearGradient id="SVGID_00000029039906334940262420000008886940507018366600_" gradientUnits="userSpaceOnUse" x1="695.7194" y1="340.2695" x2="750.5325" y2="296.2188" gradientTransform="matrix(0.9233 -0.384 0.384 0.9233 -440.9926 167.0998)">
				<stop  offset="0" style="stop-color:#8E54E9"/>
				<stop  offset="0.5936" style="stop-color:#6567E7"/>
				<stop  offset="1" style="stop-color:#4776E6"/>
			</linearGradient>
			<path style="fill:url(#SVGID_00000029039906334940262420000008886940507018366600_);" d="M341.91,198.15
				c-8.93,4.78-18.25,7.79-25.46,9.68c1.6,0.45,6,1.54,12.21,1.52c-3.13-0.36-5.36-0.93-6.4-1.22c7.21-1.89,16.52-4.9,25.46-9.68
				c24.62-13.16,27.1-29.39,27.49-33.63c-1.8,0.78-3.89,1.63-6.23,2.52C367.69,173.77,362.67,187.05,341.91,198.15z"/>
		</g>
		<g>
			
				<linearGradient id="SVGID_00000044139144828379626840000013814593222657126022_" gradientUnits="userSpaceOnUse" x1="650.1933" y1="198.5425" x2="695.9388" y2="153.25" gradientTransform="matrix(0.9718 -0.2356 0.2356 0.9718 -245.4074 76.0573)">
				<stop  offset="0" style="stop-color:#4776E6"/>
				<stop  offset="0.1822" style="stop-color:#477CE6"/>
				<stop  offset="0.4228" style="stop-color:#478DE6"/>
				<stop  offset="0.6962" style="stop-color:#47A8E6"/>
				<stop  offset="0.9918" style="stop-color:#47CEE6"/>
				<stop  offset="1" style="stop-color:#47CFE6"/>
			</linearGradient>
			<path style="fill:url(#SVGID_00000044139144828379626840000013814593222657126022_);" d="M422.31,111.65
				c29.44-9.22,38.28-17.15,40.87-22.71c3.03-6.5-0.53-13.93,8.74-24.8c1.85-2.16,3.68-3.85,4.83-4.86
				c-7.56,1.73-16.09,4.56-22.32,9.47c-9.56,7.54-6.34,14.16-14.26,25.75C435.47,101.39,428.83,107.1,422.31,111.65z"/>
			
				<linearGradient id="SVGID_00000051357958260459808380000002393181574235872391_" gradientUnits="userSpaceOnUse" x1="986.0123" y1="489.7955" x2="1061.135" y2="489.7955" gradientTransform="matrix(0.7891 -0.6144 0.6144 0.7891 -660.0921 326.5781)">
				<stop  offset="0" style="stop-color:#4776E6"/>
				<stop  offset="0.1822" style="stop-color:#477CE6"/>
				<stop  offset="0.4228" style="stop-color:#478DE6"/>
				<stop  offset="0.6962" style="stop-color:#47A8E6"/>
				<stop  offset="0.9918" style="stop-color:#47CEE6"/>
				<stop  offset="1" style="stop-color:#47CFE6"/>
			</linearGradient>
			<path style="opacity:0.3;fill:url(#SVGID_00000051357958260459808380000002393181574235872391_);" d="M443.36,95.68
				c7.92-11.59,4.7-18.21,14.26-25.75c4.58-3.61,10.4-6.09,16.17-7.84c1.15-1.18,2.2-2.15,2.96-2.81
				c-7.56,1.73-16.09,4.56-22.32,9.47c-9.56,7.54-6.34,14.16-14.26,25.75c-4.71,6.89-11.35,12.6-17.87,17.15
				c3.09-0.97,5.91-1.92,8.57-2.86C435.53,105.03,439.96,100.67,443.36,95.68z"/>
		</g>
		<g>
			<g>
				
					<linearGradient id="SVGID_00000183968270679416860880000014159712872643720865_" gradientUnits="userSpaceOnUse" x1="271.9594" y1="413.1014" x2="271.9594" y2="436.8575" gradientTransform="matrix(0.9988 -0.0491 0.0491 0.9988 -77.6724 -3.1846)">
					<stop  offset="0" style="stop-color:#47CFE6"/>
					<stop  offset="0.3743" style="stop-color:#51A6E7"/>
					<stop  offset="1" style="stop-color:#645AE9"/>
				</linearGradient>
				<path style="fill:url(#SVGID_00000183968270679416860880000014159712872643720865_);" d="M219.08,392.14l-10.34,0.39
					c0,0,1.47,8.8-9.59,14.06c0,0,11.64,5.99,16.09,21.39l-1.22-17.69c-1.83-0.18-3.29-1.3-3.39-2.71
					c-0.11-1.59,1.55-2.95,3.71-3.03c2.16-0.08,4,1.15,4.11,2.74c0.1,1.41-1.18,2.63-2.97,2.95l0.94,17.71
					c0,0,1.35-14.28,13.89-22.52C230.31,405.42,220.67,403.38,219.08,392.14z"/>
			</g>
			
				<linearGradient id="SVGID_00000136373965072357240230000011431407666924524728_" gradientUnits="userSpaceOnUse" x1="189.7254" y1="382.903" x2="189.8801" y2="387.1574" gradientTransform="matrix(0.9998 0.0198 -0.0198 0.9998 31.4902 1.9265)">
				<stop  offset="0" style="stop-color:#47CFE6"/>
				<stop  offset="0.3743" style="stop-color:#51A6E7"/>
				<stop  offset="1" style="stop-color:#645AE9"/>
			</linearGradient>
			<path style="fill:url(#SVGID_00000136373965072357240230000011431407666924524728_);" d="M209.21,391.96l9.09-0.34
				c1.42-0.05,2.51-0.95,2.43-2.01l-0.01-0.17c-0.07-1.05-1.28-1.86-2.7-1.81l-9.09,0.34c-1.42,0.05-2.51,0.95-2.44,2.01l0.01,0.17
				C206.58,391.2,207.79,392.01,209.21,391.96z"/>
			<g>
				
					<linearGradient id="SVGID_00000131366806776389997610000014603489916269265054_" gradientUnits="userSpaceOnUse" x1="271.5287" y1="399.6891" x2="272.2954" y2="406.5045" gradientTransform="matrix(0.9988 -0.0491 0.0491 0.9988 -77.6724 -3.1846)">
					<stop  offset="0" style="stop-color:#47CFE6"/>
					<stop  offset="0.3743" style="stop-color:#51A6E7"/>
					<stop  offset="1" style="stop-color:#645AE9"/>
				</linearGradient>
				<path style="fill:url(#SVGID_00000131366806776389997610000014603489916269265054_);" d="M216.99,379.58
					c-0.65,0.02-1.26,0.3-1.52,0.74c-0.65,1.1-1.68,1.83-2.9,1.87c-1.22,0.04-2.34-0.6-3.13-1.65c-0.32-0.42-0.96-0.65-1.61-0.63
					l-1.49,0.05c-0.94,0.03-1.67,0.63-1.62,1.32l0.27,3.99c0.05,0.7,0.85,1.23,1.79,1.2l13.29-0.48c0.94-0.03,1.67-0.63,1.62-1.32
					l-0.26-3.99c-0.05-0.7-0.85-1.23-1.79-1.2L216.99,379.58z"/>
			</g>
			<g>
				
					<linearGradient id="SVGID_00000053522836346681943750000018007245909295919769_" gradientUnits="userSpaceOnUse" x1="184.9131" y1="422.9358" x2="181.1906" y2="372.088" gradientTransform="matrix(0.9998 0.0198 -0.0198 0.9998 31.4902 1.9265)">
					<stop  offset="0" style="stop-color:#47CFE6"/>
					<stop  offset="0.3743" style="stop-color:#51A6E7"/>
					<stop  offset="1" style="stop-color:#645AE9"/>
				</linearGradient>
				<path style="fill:url(#SVGID_00000053522836346681943750000018007245909295919769_);" d="M214.35,404.54c0.02,0,0.03,0,0.05,0
					l-0.84-12.19l-4.81,0.18c0,0,1.47,8.8-9.59,14.06c0,0,11.64,5.99,16.09,21.39l-1.22-17.69c-1.83-0.18-3.29-1.3-3.39-2.71
					C210.53,405.98,212.19,404.62,214.35,404.54z"/>
				
					<linearGradient id="SVGID_00000157301392308319797360000010614519298925139335_" gradientUnits="userSpaceOnUse" x1="186.2529" y1="386.6797" x2="185.8871" y2="380.5138" gradientTransform="matrix(0.9998 0.0198 -0.0198 0.9998 31.4902 1.9265)">
					<stop  offset="0" style="stop-color:#47CFE6"/>
					<stop  offset="0.3743" style="stop-color:#51A6E7"/>
					<stop  offset="1" style="stop-color:#645AE9"/>
				</linearGradient>
				<path style="fill:url(#SVGID_00000157301392308319797360000010614519298925139335_);" d="M207.92,388.01
					c-0.86,0.03-1.52,0.57-1.48,1.21l0.12,1.69c0.04,0.63,0.78,1.12,1.63,1.09l5.32-0.2l-0.27-3.99L207.92,388.01z"/>
				
					<linearGradient id="SVGID_00000036225017633808761220000017956899908586754464_" gradientUnits="userSpaceOnUse" x1="189.8853" y1="385.361" x2="189.9281" y2="386.5404" gradientTransform="matrix(0.9998 0.0198 -0.0198 0.9998 31.4902 1.9265)">
					<stop  offset="0" style="stop-color:#47CFE6"/>
					<stop  offset="0.3743" style="stop-color:#51A6E7"/>
					<stop  offset="1" style="stop-color:#645AE9"/>
				</linearGradient>
				<path style="opacity:0.5;fill:url(#SVGID_00000036225017633808761220000017956899908586754464_);" d="M213.56,391.62
					c-3.67,0.1-5.67-0.19-6.51-0.34c-0.16-0.03-0.3-0.05-0.39-0.07c0.22,0.48,0.84,0.81,1.55,0.78l11.11-0.42
					c0.74-0.03,1.33-0.43,1.45-0.95c-0.08,0.03-0.21,0.07-0.37,0.13C219.86,390.93,218.05,391.5,213.56,391.62z"/>
				
					<linearGradient id="SVGID_00000169531539232178753470000001634908917127409323_" gradientUnits="userSpaceOnUse" x1="185.2375" y1="381.7922" x2="184.6358" y2="373.9703" gradientTransform="matrix(0.9998 0.0198 -0.0198 0.9998 31.4902 1.9265)">
					<stop  offset="0" style="stop-color:#47CFE6"/>
					<stop  offset="0.3743" style="stop-color:#51A6E7"/>
					<stop  offset="1" style="stop-color:#645AE9"/>
				</linearGradient>
				<path style="fill:url(#SVGID_00000169531539232178753470000001634908917127409323_);" d="M212.57,382.2
					c-1.22,0.04-2.34-0.6-3.13-1.65c-0.32-0.42-0.96-0.65-1.61-0.63l-1.49,0.05c-0.94,0.03-1.67,0.63-1.62,1.32l0.27,3.99
					c0.05,0.7,0.85,1.23,1.79,1.2l6.36-0.23l-0.28-4.08C212.76,382.18,212.67,382.2,212.57,382.2z"/>
			</g>
			
				<linearGradient id="SVGID_00000020372265251237307090000008585884153843025047_" gradientUnits="userSpaceOnUse" x1="189.5071" y1="380.1606" x2="189.6547" y2="381.4723" gradientTransform="matrix(0.9998 0.0198 -0.0198 0.9998 31.4902 1.9265)">
				<stop  offset="0" style="stop-color:#47CFE6"/>
				<stop  offset="0.3743" style="stop-color:#51A6E7"/>
				<stop  offset="1" style="stop-color:#645AE9"/>
			</linearGradient>
			<path style="opacity:0.5;fill:url(#SVGID_00000020372265251237307090000008585884153843025047_);" d="M205.58,385.88
				c-0.17-0.03-0.31-0.06-0.4-0.09c0.3,0.43,0.91,0.71,1.6,0.68l13.29-0.48c0.77-0.03,1.38-0.43,1.56-0.95
				c-0.16,0.07-0.39,0.16-0.68,0.27c-2.48,0.9-3.96,0.5-7.83,0.64C209.88,386.07,208.35,386.44,205.58,385.88z"/>
		</g>
	</g>
</g>
<g id="Texts">
</g>
</svg>
